STARTFONT 2.1
FONT -Misc-Fixed-Medium-R-Normal--8-80-75-75-M-80-ISO8859-1
SIZE 8 75 75
FONTBOUNDINGBOX 8 8 0 0
STARTPROPERTIES 2
FONT_DESCENT 0
FONT_ASCENT 8
ENDPROPERTIES
CHARS 80
STARTCHAR B1
ENCODING 0
SWIDTH 960 0
DWIDTH 8 0
BBX 8 8 0 0
BITMAP
F0
1C
0E
12
22
42
FE
00
ENDCHAR
STARTCHAR B2
ENCODING 1
SWIDTH 960 0
DWIDTH 8 0
BBX 8 8 0 0
BITMAP
F0
1C
0E
12
22
42
FE
00
ENDCHAR
STARTCHAR B3
ENCODING 2
SWIDTH 960 0
DWIDTH 8 0
BBX 8 8 0 0
BITMAP
44
6C
28
7C
C6
C6
7C
00
ENDCHAR
STARTCHAR B4
ENCODING 3
SWIDTH 960 0
DWIDTH 8 0
BBX 8 8 0 0
BITMAP
7C
44
EE
BA
82
C6
44
00
ENDCHAR
STARTCHAR B5
ENCODING 4
SWIDTH 960 0
DWIDTH 8 0
BBX 8 8 0 0
BITMAP
7C
C6
82
02
82
C6
7C
00
ENDCHAR
STARTCHAR B6
ENCODING 5
SWIDTH 960 0
DWIDTH 8 0
BBX 8 8 0 0
BITMAP
FC
12
12
FC
10
10
10
00
ENDCHAR
STARTCHAR B7
ENCODING 6
SWIDTH 960 0
DWIDTH 8 0
BBX 8 8 0 0
BITMAP
44
00
10
10
10
10
10
00
ENDCHAR
STARTCHAR B8
ENCODING 7
SWIDTH 960 0
DWIDTH 8 0
BBX 8 8 0 0
BITMAP
80
FE
A6
BC
98
8C
86
00
ENDCHAR
STARTCHAR B9
ENCODING 8
SWIDTH 960 0
DWIDTH 8 0
BBX 8 8 0 0
BITMAP
82
C6
7C
16
32
62
C2
00
ENDCHAR
STARTCHAR BA
ENCODING 9
SWIDTH 960 0
DWIDTH 8 0
BBX 8 8 0 0
BITMAP
00
10
38
6C
C6
82
FE
00
ENDCHAR
STARTCHAR BB
ENCODING 10
SWIDTH 960 0
DWIDTH 8 0
BBX 8 8 0 0
BITMAP
FE
40
7C
66
42
42
42
00
ENDCHAR
STARTCHAR BC
ENCODING 11
SWIDTH 960 0
DWIDTH 8 0
BBX 8 8 0 0
BITMAP
82
82
C6
82
82
C6
7C
00
ENDCHAR
STARTCHAR BD
ENCODING 12
SWIDTH 960 0
DWIDTH 8 0
BBX 8 8 0 0
BITMAP
F0
1C
06
FE
38
0E
02
00
ENDCHAR
STARTCHAR BE
ENCODING 13
SWIDTH 960 0
DWIDTH 8 0
BBX 8 8 0 0
BITMAP
00
00
82
C6
44
6C
28
00
ENDCHAR
STARTCHAR BF
ENCODING 14
SWIDTH 960 0
DWIDTH 8 0
BBX 8 8 0 0
BITMAP
3E
0C
98
B0
E0
C0
80
00
ENDCHAR
STARTCHAR C0
ENCODING 15
SWIDTH 960 0
DWIDTH 8 0
BBX 8 8 0 0
BITMAP
82
C6
7C
18
30
60
C0
00
ENDCHAR
STARTCHAR C1
ENCODING 16
SWIDTH 960 0
DWIDTH 8 0
BBX 8 8 0 0
BITMAP
86
8E
9A
B2
E6
CA
86
00
ENDCHAR
STARTCHAR C2
ENCODING 17
SWIDTH 960 0
DWIDTH 8 0
BBX 8 8 0 0
BITMAP
38
6C
C6
6C
38
6C
44
00
ENDCHAR
STARTCHAR C3
ENCODING 18
SWIDTH 960 0
DWIDTH 8 0
BBX 8 8 0 0
BITMAP
82
8E
BA
E2
82
82
82
00
ENDCHAR
STARTCHAR C4
ENCODING 19
SWIDTH 960 0
DWIDTH 8 0
BBX 8 8 0 0
BITMAP
82
BA
6C
3E
02
06
FC
00
ENDCHAR
STARTCHAR C5
ENCODING 20
SWIDTH 960 0
DWIDTH 8 0
BBX 8 8 0 0
BITMAP
8C
86
E2
26
2E
6A
CE
00
ENDCHAR
STARTCHAR C6
ENCODING 21
SWIDTH 960 0
DWIDTH 8 0
BBX 8 8 0 0
BITMAP
84
84
E6
24
24
6C
C8
00
ENDCHAR
STARTCHAR C7
ENCODING 22
SWIDTH 960 0
DWIDTH 8 0
BBX 8 8 0 0
BITMAP
8A
8A
E4
2A
2A
6A
C4
00
ENDCHAR
STARTCHAR C8
ENCODING 23
SWIDTH 960 0
DWIDTH 8 0
BBX 8 8 0 0
BITMAP
84
8A
EE
2A
2A
6A
CA
00
ENDCHAR
STARTCHAR C9
ENCODING 24
SWIDTH 960 0
DWIDTH 8 0
BBX 8 8 0 0
BITMAP
84
8A
EA
22
2A
6A
C4
00
ENDCHAR
STARTCHAR CA
ENCODING 25
SWIDTH 960 0
DWIDTH 8 0
BBX 8 8 0 0
BITMAP
FE
28
28
28
6C
44
C6
00
ENDCHAR
STARTCHAR CB
ENCODING 26
SWIDTH 960 0
DWIDTH 8 0
BBX 8 8 0 0
BITMAP
54
94
FC
34
26
62
42
00
ENDCHAR
STARTCHAR CC
ENCODING 27
SWIDTH 960 0
DWIDTH 8 0
BBX 8 8 0 0
BITMAP
BC
E6
82
82
8A
E6
BC
00
ENDCHAR
STARTCHAR CD
ENCODING 28
SWIDTH 960 0
DWIDTH 8 0
BBX 8 8 0 0
BITMAP
C0
20
A0
E0
80
80
FE
00
ENDCHAR
STARTCHAR CE
ENCODING 29
SWIDTH 960 0
DWIDTH 8 0
BBX 8 8 0 0
BITMAP
00
38
6C
EE
BA
92
82
00
ENDCHAR
STARTCHAR CF
ENCODING 30
SWIDTH 960 0
DWIDTH 8 0
BBX 8 8 0 0
BITMAP
FE
C4
A8
90
A8
C4
82
00
ENDCHAR
STARTCHAR D0
ENCODING 31
SWIDTH 960 0
DWIDTH 8 0
BBX 8 8 0 0
BITMAP
10
10
10
38
6C
C6
FE
00
ENDCHAR
STARTCHAR D1
ENCODING 32
SWIDTH 960 0
DWIDTH 8 0
BBX 8 8 0 0
BITMAP
8A
CA
4A
7E
40
C0
80
00
ENDCHAR
STARTCHAR D2
ENCODING 33
SWIDTH 960 0
DWIDTH 8 0
BBX 8 8 0 0
BITMAP
96
9A
B2
D2
10
10
10
00
ENDCHAR
STARTCHAR D3
ENCODING 34
SWIDTH 960 0
DWIDTH 8 0
BBX 8 8 0 0
BITMAP
86
4A
3E
08
3E
4A
86
00
ENDCHAR
STARTCHAR D4
ENCODING 35
SWIDTH 960 0
DWIDTH 8 0
BBX 8 8 0 0
BITMAP
4C
46
72
46
4E
4A
8E
00
ENDCHAR
STARTCHAR D5
ENCODING 37
SWIDTH 960 0
DWIDTH 8 0
BBX 8 8 0 0
BITMAP
4A
4A
64
4A
4A
4A
84
00
ENDCHAR
STARTCHAR D6
ENCODING 39
SWIDTH 960 0
DWIDTH 8 0
BBX 8 8 0 0
BITMAP
44
4A
6A
42
4A
4A
84
00
ENDCHAR
STARTCHAR D7
ENCODING 40
SWIDTH 960 0
DWIDTH 8 0
BBX 8 8 0 0
BITMAP
5C
62
36
7C
C0
C2
7E
00
ENDCHAR
STARTCHAR D8
ENCODING 41
SWIDTH 960 0
DWIDTH 8 0
BBX 8 8 0 0
BITMAP
3C
44
4C
38
6C
C6
82
00
ENDCHAR
STARTCHAR D9
ENCODING 42
SWIDTH 960 0
DWIDTH 8 0
BBX 8 8 0 0
BITMAP
E0
38
0C
1E
32
62
DE
00
ENDCHAR
STARTCHAR DA
ENCODING 43
SWIDTH 960 0
DWIDTH 8 0
BBX 8 8 0 0
BITMAP
10
10
10
00
28
6C
C6
00
ENDCHAR
STARTCHAR DB
ENCODING 44
SWIDTH 960 0
DWIDTH 8 0
BBX 8 8 0 0
BITMAP
3C
66
66
3C
60
C0
80
00
ENDCHAR
STARTCHAR DC
ENCODING 45
SWIDTH 960 0
DWIDTH 8 0
BBX 8 8 0 0
BITMAP
AC
A6
42
A6
AE
AA
4E
00
ENDCHAR
STARTCHAR A6
ENCODING 49
SWIDTH 960 0
DWIDTH 8 0
BBX 8 8 0 0
BITMAP
A4
AA
4A
A2
AA
AA
44
00
ENDCHAR
STARTCHAR E0
ENCODING 50
SWIDTH 960 0
DWIDTH 8 0
BBX 8 8 0 0
BITMAP
FC
12
12
FC
28
44
82
00
ENDCHAR
STARTCHAR E1
ENCODING 51
SWIDTH 960 0
DWIDTH 8 0
BBX 8 8 0 0
BITMAP
44
00
10
10
18
14
12
00
ENDCHAR
STARTCHAR E2
ENCODING 52
SWIDTH 960 0
DWIDTH 8 0
BBX 8 8 0 0
BITMAP
80
FE
A6
BC
88
9C
A6
00
ENDCHAR
STARTCHAR E3
ENCODING 53
SWIDTH 960 0
DWIDTH 8 0
BBX 8 8 0 0
BITMAP
82
C6
7C
1E
38
6C
CA
00
ENDCHAR
STARTCHAR E4
ENCODING 54
SWIDTH 960 0
DWIDTH 8 0
BBX 8 8 0 0
BITMAP
00
00
20
70
D8
8C
FA
00
ENDCHAR
STARTCHAR E5
ENCODING 55
SWIDTH 960 0
DWIDTH 8 0
BBX 8 8 0 0
BITMAP
FE
40
7C
66
44
4C
5A
00
ENDCHAR
STARTCHAR E6
ENCODING 56
SWIDTH 960 0
DWIDTH 8 0
BBX 8 8 0 0
BITMAP
84
84
CC
84
84
CC
7A
00
ENDCHAR
STARTCHAR E7
ENCODING 57
SWIDTH 960 0
DWIDTH 8 0
BBX 8 8 0 0
BITMAP
F0
1C
06
FE
38
6E
C2
00
ENDCHAR
STARTCHAR E8
ENCODING 58
SWIDTH 960 0
DWIDTH 8 0
BBX 8 8 0 0
BITMAP
00
00
82
C6
44
6C
2A
00
ENDCHAR
STARTCHAR E9
ENCODING 59
SWIDTH 960 0
DWIDTH 8 0
BBX 8 8 0 0
BITMAP
3E
0C
98
B0
F8
CC
86
00
ENDCHAR
STARTCHAR EA
ENCODING 60
SWIDTH 960 0
DWIDTH 8 0
BBX 8 8 0 0
BITMAP
82
C6
7C
18
38
6C
C6
00
ENDCHAR
STARTCHAR EB
ENCODING 61
SWIDTH 960 0
DWIDTH 8 0
BBX 8 8 0 0
BITMAP
84
8C
9C
B4
EC
D4
8A
00
ENDCHAR
STARTCHAR EC
ENCODING 62
SWIDTH 960 0
DWIDTH 8 0
BBX 8 8 0 0
BITMAP
38
6C
C6
6C
38
7C
54
00
ENDCHAR
STARTCHAR ED
ENCODING 63
SWIDTH 960 0
DWIDTH 8 0
BBX 8 8 0 0
BITMAP
84
8C
BC
E4
84
8E
8A
00
ENDCHAR
STARTCHAR EE
ENCODING 64
SWIDTH 960 0
DWIDTH 8 0
BBX 8 8 0 0
BITMAP
82
BA
6C
3E
06
38
E6
00
ENDCHAR
STARTCHAR EF
ENCODING 65
SWIDTH 960 0
DWIDTH 8 0
BBX 8 8 0 0
BITMAP
FE
C4
C8
B0
A8
D4
92
00
ENDCHAR
STARTCHAR F0
ENCODING 66
SWIDTH 960 0
DWIDTH 8 0
BBX 8 8 0 0
BITMAP
20
20
20
70
D8
DC
72
00
ENDCHAR
STARTCHAR F1
ENCODING 67
SWIDTH 960 0
DWIDTH 8 0
BBX 8 8 0 0
BITMAP
8A
CA
4A
7E
70
D8
8C
00
ENDCHAR
STARTCHAR F2
ENCODING 68
SWIDTH 960 0
DWIDTH 8 0
BBX 8 8 0 0
BITMAP
96
9A
B2
D2
18
14
12
00
ENDCHAR
STARTCHAR F3
ENCODING 69
SWIDTH 960 0
DWIDTH 8 0
BBX 8 8 0 0
BITMAP
98
A8
F8
20
F8
AC
9A
00
ENDCHAR
STARTCHAR F4
ENCODING 70
SWIDTH 960 0
DWIDTH 8 0
BBX 8 8 0 0
BITMAP
FE
C4
C8
B1
AA
D4
92
00
ENDCHAR
STARTCHAR F5
ENCODING 71
SWIDTH 960 0
DWIDTH 8 0
BBX 8 8 0 0
BITMAP
20
20
22
74
D8
DC
72
00
ENDCHAR
STARTCHAR F6
ENCODING 72
SWIDTH 960 0
DWIDTH 8 0
BBX 8 8 0 0
BITMAP
8A
CA
4A
7E
60
F4
8E
00
ENDCHAR
STARTCHAR F7
ENCODING 73
SWIDTH 960 0
DWIDTH 8 0
BBX 8 8 0 0
BITMAP
96
9A
B2
D2
18
16
14
00
ENDCHAR
STARTCHAR F8
ENCODING 74
SWIDTH 960 0
DWIDTH 8 0
BBX 8 8 0 0
BITMAP
98
A8
F8
20
FA
AC
9A
00
ENDCHAR
STARTCHAR DD
ENCODING 75
SWIDTH 960 0
DWIDTH 8 0
BBX 8 8 0 0
BITMAP
80
80
FE
02
06
0C
78
00
ENDCHAR
STARTCHAR A7
ENCODING 71
SWIDTH 960 0
DWIDTH 8 0
BBX 8 8 0 0
BITMAP
F0
1C
0E
12
22
42
FE
00
ENDCHAR
STARTCHAR A8
ENCODING 72
SWIDTH 960 0
DWIDTH 8 0
BBX 8 8 0 0
BITMAP
F0
1C
0E
12
22
42
FE
00
ENDCHAR
STARTCHAR A9
ENCODING 73
SWIDTH 960 0
DWIDTH 8 0
BBX 8 8 0 0
BITMAP
44
6C
28
7C
C6
C6
7C
00
ENDCHAR
STARTCHAR AA
ENCODING 74
SWIDTH 960 0
DWIDTH 8 0
BBX 8 8 0 0
BITMAP
7C
44
EE
BA
82
C6
44
00
ENDCHAR
STARTCHAR AB
ENCODING 75
SWIDTH 960 0
DWIDTH 8 0
BBX 8 8 0 0
BITMAP
7C
C6
82
02
82
C6
7C
00
ENDCHAR
STARTCHAR AC
ENCODING 76
SWIDTH 960 0
DWIDTH 8 0
BBX 8 8 0 0
BITMAP
4C
46
72
46
4E
4A
8E
00
ENDCHAR
STARTCHAR AD
ENCODING 77
SWIDTH 960 0
DWIDTH 8 0
BBX 8 8 0 0
BITMAP
4A
4A
64
4A
4A
4A
84
00
ENDCHAR
STARTCHAR AE
ENCODING 78
SWIDTH 960 0
DWIDTH 8 0
BBX 8 8 0 0
BITMAP
44
4A
6A
42
4A
4A
84
00
ENDCHAR
STARTCHAR AF
ENCODING 79
SWIDTH 960 0
DWIDTH 8 0
BBX 8 8 0 0
BITMAP
38
6C
C6
6C
38
6C
44
00
ENDCHAR
ENDFONT
