STARTFONT 2.1
FONT -Misc-Fixed-Medium-R-Normal--8-80-75-75-M-80-ISO8859-1
SIZE 8 75 75
FONTBOUNDINGBOX 8 8 0 0
STARTPROPERTIES 2
FONT_DESCENT 0
FONT_ASCENT 8
ENDPROPERTIES
CHARS 10
STARTCHAR 30
ENCODING 0
SWIDTH 960 0
DWIDTH 8 0
BBX 8 8 0 0
BITMAP
7C
C6
82
92
82
C6
7C
00
ENDCHAR
STARTCHAR 31
ENCODING 1
SWIDTH 960 0
DWIDTH 8 0
BBX 8 8 0 0
BITMAP
10
10
10
10
10
00
FE
00
ENDCHAR
STARTCHAR 32
ENCODING 2
SWIDTH 960 0
DWIDTH 8 0
BBX 8 8 0 0
BITMAP
20
38
68
6C
3C
08
08
00
ENDCHAR
STARTCHAR 33
ENCODING 3
SWIDTH 960 0
DWIDTH 8 0
BBX 8 8 0 0
BITMAP
7C
C6
82
02
82
C6
7C
00
ENDCHAR
STARTCHAR 34
ENCODING 4
SWIDTH 960 0
DWIDTH 8 0
BBX 8 8 0 0
BITMAP
10
10
10
10
38
6C
C6
00
ENDCHAR
STARTCHAR 35
ENCODING 5
SWIDTH 960 0
DWIDTH 8 0
BBX 8 8 0 0
BITMAP
38
7C
D6
92
92
92
92
00
ENDCHAR
STARTCHAR 36
ENCODING 6
SWIDTH 960 0
DWIDTH 8 0
BBX 8 8 0 0
BITMAP
9E
D6
7C
10
10
10
10
00
ENDCHAR
STARTCHAR 37
ENCODING 7
SWIDTH 960 0
DWIDTH 8 0
BBX 8 8 0 0
BITMAP
60
30
18
30
64
44
44
00
ENDCHAR
STARTCHAR 38
ENCODING 8
SWIDTH 960 0
DWIDTH 8 0
BBX 8 8 0 0
BITMAP
82
82
FE
82
82
C6
7C
00
ENDCHAR
STARTCHAR 39
ENCODING 9
SWIDTH 960 0
DWIDTH 8 0
BBX 8 8 0 0
BITMAP
44
44
60
38
0C
04
04
00
ENDCHAR
ENDFONT
